PathFileType	4	(X/Y/Z)	Patient4_TMGait_0pt5_02_left_09.trc.trc
DataRate	CameraRate	NumFrames	NumMarkers	Units	OrigDataRate	OrigDataStartFrame	OrigNumFrames
77.777777777778	77.777777777778	4	33	mm	77.777777777778	71	       141
Frame#	Time	Sacral			L.Shoulder			Chest			R.Shoulder			Neck			R.ASIS			L.ASIS			R.Thigh.Superior			R.Thigh.Lateral			R.Thigh.Inferior			R.Patella			L.Thigh.Superior			L.Thigh.Lateral			L.Thigh.Inferior			L.Patella			L.Shank.Superior			L.Shank.Lateral			L.Shank.Inferior			R.Shank.Superior			R.Shank.Lateral			R.Shank.Inferior			R.Heel			R.Midfoot.Superior			R.Midfoot.Lateral			R.Toe			L.Heel			L.Midfoot.Lateral			L.Midfoot.Superior			L.Toe			L.Elbow			L.Wrist			R.Elbow			R.Wrist			
		X1	Y1	Z1	X2	Y2	Z2	X3	Y3	Z3	X4	Y4	Z4	X5	Y5	Z5	X6	Y6	Z6	X7	Y7	Z7	X8	Y8	Z8	X9	Y9	Z9	X10	Y10	Z10	X11	Y11	Z11	X12	Y12	Z12	X13	Y13	Z13	X14	Y14	Z14	X15	Y15	Z15	X16	Y16	Z16	X17	Y17	Z17	X18	Y18	Z18	X19	Y19	Z19	X20	Y20	Z20	X21	Y21	Z21	X22	Y22	Z22	X23	Y23	Z23	X24	Y24	Z24	X25	Y25	Z25	X26	Y26	Z26	X27	Y27	Z27	X28	Y28	Z28	X29	Y29	Z29	X30	Y30	Z30	X31	Y31	Z31	X32	Y32	Z32	X33	Y33	Z33	

71	12.000000000000	584.920252289499	1001.945122529192	442.873814217863	773.893224578323	1436.068456816043	283.237339912673	860.197141487137	1363.775126504838	452.059841322358	760.800951074230	1435.383560786286	620.105746140422	756.450787645850	1493.703936732358	434.740224481762	802.191617055997	941.233212733899	577.460245719197	809.601052530494	960.606355480044	302.391113939816	876.263073279892	763.822709370242	550.424997092802	824.797175081948	641.406315727700	615.357726639294	914.319650426838	604.449909715066	536.769840310341	945.316186773051	521.687814368250	549.351458813869	824.251900995572	734.432042294985	335.668376212053	718.895642052319	633.326393190275	269.390358989036	778.162884176966	544.743379992137	340.753493810031	764.491156861137	476.907744372005	352.390270827668	734.731768474432	408.412073874612	342.473270725708	640.345485812593	300.470181119517	287.792023126898	674.712418405698	188.423746585863	366.105236552029	930.199213809365	432.482484441029	556.208205424290	878.271425597524	316.296353373989	615.314242049434	947.990334749314	232.678188841327	561.242059761677	855.718848307896	45.767354636051	525.604352468499	1016.582021273945	122.181754848856	572.414792834021	937.396583435298	44.940133557623	602.290720190081	1139.798080426567	85.605903187233	602.210378604242	534.660545162608	37.758253334349	404.559530870677	609.846829888512	34.763961023032	325.040274071054	692.561241071716	95.343038660449	354.000289161262	820.976396737059	45.331906042200	327.228324108864	828.945696695451	1101.549019787838	134.257155007021	1074.863866630553	1023.905050711526	160.530566891476	611.080355066882	1121.652087395593	715.815680848006	566.583266998146	864.936479205200	726.494232568354	
72	12.012857142857	587.614958089964	1000.419523562422	444.172644132083	774.502858029436	1435.214742201832	284.836049286831	860.949278477351	1363.279511593783	453.772912796404	761.014311859924	1434.461282845440	621.665765843971	756.565580708726	1492.681547531640	436.331420645416	804.787756575712	939.917625642074	578.991945319466	812.344028098383	959.666017643312	304.008129815022	877.399665731744	760.598330952732	552.304784169029	823.533438833683	638.415329915120	615.782230440284	913.146237578731	601.170801310304	537.564619075680	942.515251468627	518.724677892167	548.967697372104	824.566435642488	732.688119120889	336.577487151345	717.532685594130	632.927866479771	270.077102641595	775.607985193828	543.536560078509	341.162406370609	761.203459151380	475.774716049232	352.662920492301	730.878685787516	407.737387503532	342.779668716372	635.539122740224	300.614669008698	288.004916290142	669.006170236690	188.098741685361	366.077398712446	928.302216297369	429.494051134471	555.753650940211	876.717766685147	312.819166867634	613.900522600037	947.242427978063	229.896780598711	559.774748370710	855.746041039128	43.761635764001	522.988099641797	1016.374569004877	119.251947920128	570.289929850167	937.051973085131	42.739601715137	600.021942217392	1139.481408154899	82.237057400963	600.554064741335	528.188095763330	37.785151131556	404.488330926514	603.398031951691	34.743964007703	325.050675847588	686.201831374227	95.248140205629	353.970371481235	814.590835570077	44.896634742494	327.207066043665	832.216875352239	1101.802022986936	135.036644461484	1079.907295944834	1031.253629395279	161.632990725187	607.864421668811	1123.001495315763	716.868084209329	560.938000190643	866.680347898193	727.648396566884	
73	12.025714285714	590.396765901473	998.849950872721	445.668922159940	775.071104475035	1434.264055805393	286.531245507062	861.729812410443	1362.795664626871	455.594404919657	761.187138210128	1433.493052659889	623.289739485264	756.637362548076	1491.606891666202	438.005571327779	807.569850159272	938.572837971002	580.646304000657	815.247145351808	958.691957342868	305.798983852135	879.108551331338	757.627366737662	553.980824958827	823.009474629948	635.678076730240	616.054743555008	912.689934395637	598.220127472392	538.164091923986	940.332111025389	515.725833635149	548.449067049842	825.080008981957	730.931843193787	337.561792810419	716.393555201136	632.493734297919	270.928688516521	773.376764649725	542.303615732594	341.694142808823	758.297716406746	474.542958821662	353.054146357948	727.291643950423	407.008662930586	343.197004962023	630.876326493447	300.816972915558	288.311603005092	663.385806073595	187.776187499732	366.066839256373	926.546119698429	426.384889144899	555.213369649185	874.662314816245	309.611262235988	612.559729265548	945.246521756448	226.928796180726	558.316348376869	853.096416271737	42.390577489302	520.708325083779	1014.007342159989	115.893920356760	568.135175573588	934.074687036010	40.848373668026	598.069057354195	1136.825128908723	77.644992264964	598.909941027525	521.700877461892	37.841395437626	404.387330526475	596.957077257860	34.732596949260	325.056229751216	679.852015763856	95.171193665880	353.929089141458	808.221550921819	44.426462596809	327.173845367065	835.164692667509	1101.809940684410	136.028194036358	1084.337370046193	1037.834416359108	162.751453676497	605.503955044980	1123.881460747414	718.042677538682	556.969336744463	867.789550503055	728.861042923417	
74	12.038571428571	593.197022374511	997.313121891955	447.341387695705	775.642573839268	1433.268051669477	288.330570951408	862.561275799020	1362.340694552772	457.525500722830	761.351572620577	1432.501742871989	624.986314898650	756.728019361473	1490.534141445231	439.772653650620	810.476448793832	937.265085542648	582.405762846701	818.221942719355	957.721495489954	307.738493027666	881.334417114062	754.990693791503	555.420439789190	823.231721660452	633.298341506973	616.235819807310	912.925693912190	595.678037006824	538.589113836483	938.806697657287	512.824318253553	547.854916832511	825.795649690301	729.224855647359	338.617325606007	715.526743757815	632.037115945790	271.960959474869	771.553407828854	541.074602458294	342.373622945348	755.883059655064	473.218227757666	353.584670086632	724.057184575172	406.226396258122	343.745148746523	626.429188498825	301.103274579597	288.724240466997	657.896288232438	187.477825590095	366.080682691697	925.049696030349	423.306350870956	554.645073405074	872.405180131279	306.751242894633	611.427038782651	942.364833235353	223.907658559799	556.939068916657	848.359227383165	41.536896843948	518.879930235176	1009.969813979888	112.349048025822	566.031392603357	929.098513011046	39.272763298622	596.504612170687	1132.410345903936	72.308589072123	597.283043888083	515.206951056778	37.989133716748	404.248171702478	590.535059687488	34.757320953563	325.051735549101	673.539130584548	95.122907992880	353.868330594701	801.880617694051	43.915263867120	327.125411456590	837.765132256715	1101.579407294649	137.256293735412	1088.161921864553	1043.559093744979	163.890933951781	604.073333157886	1124.232068476477	719.347773204850	554.693592109580	868.211779254626	730.176203843292	
